<?xml version="1.0" encoding="UTF-8" standalone="no"?>
<svg width="477px" height="115px" viewBox="0 0 477 115" version="1.1" xmlns="http://www.w3.org/2000/svg" xmlns:xlink="http://www.w3.org/1999/xlink" xmlns:sketch="http://www.bohemiancoding.com/sketch/ns">
    <title>tb logo 1</title>
    <description>Created with Sketch (http://www.bohemiancoding.com/sketch)</description>
    <defs></defs>
    <g id="final" stroke="none" stroke-width="1" fill="none" fill-rule="evenodd" sketch:type="MSPage">
        <path d="M25.136,49 L25.136,9.976 L39.104,9.976 L39.104,0.976 L0.8,0.976 L0.8,9.976 L14.84,9.976 L14.84,49 L25.136,49 Z M59.948,114 C69.092,114 73.916,108.24 73.916,101.04 C73.916,94.992 69.812,90.024 64.7,89.232 C69.236,88.296 72.98,84.264 72.98,78.216 C72.98,71.808 68.3,65.976 59.156,65.976 L33.884,65.976 L33.884,114 L59.948,114 Z M56.924,85.2 L44.108,85.2 L44.108,74.76 L56.924,74.76 C60.38,74.76 62.54,76.992 62.54,80.016 C62.54,83.04 60.38,85.2 56.924,85.2 Z M57.284,105.144 L44.108,105.144 L44.108,93.984 L57.284,93.984 C61.316,93.984 63.476,96.576 63.476,99.6 C63.476,103.056 61.172,105.144 57.284,105.144 Z M118.5,114 L107.7,95.712 C112.884,94.488 118.212,89.952 118.212,81.456 C118.212,72.528 112.092,65.976 102.084,65.976 L79.62,65.976 L79.62,114 L89.844,114 L89.844,96.936 L97.332,96.936 L106.764,114 L118.5,114 Z M100.572,87.936 L89.844,87.936 L89.844,74.976 L100.572,74.976 C104.676,74.976 107.772,77.424 107.772,81.456 C107.772,85.488 104.676,87.936 100.572,87.936 Z M171.7,114 L153.196,65.976 L140.38,65.976 L121.804,114 L133.468,114 L136.492,105.864 L157.084,105.864 L160.036,114 L171.7,114 Z M155.276,96.864 L140.3,96.864 L147.788,76.2 L155.276,96.864 Z M193.724,114.864 C206.684,114.864 212.948,108.24 212.948,99.456 C212.948,81.528 185.372,86.64 185.372,79.008 C185.372,76.128 187.82,74.184 192.212,74.184 C197.108,74.184 202.292,75.84 206.18,79.44 L211.868,71.952 C207.116,67.56 200.78,65.256 193.148,65.256 C181.844,65.256 174.932,71.88 174.932,79.872 C174.932,97.944 202.58,92.112 202.58,100.608 C202.58,103.344 199.844,105.936 194.228,105.936 C187.604,105.936 182.348,102.984 178.964,99.456 L173.42,107.232 C177.884,111.768 184.508,114.864 193.724,114.864 Z M229.084,114 L229.084,65.976 L218.86,65.976 L218.86,114 L229.084,114 Z M281.572,114 L281.572,65.976 L271.348,65.976 L271.348,96.144 L249.1,65.976 L238.588,65.976 L238.588,114 L248.812,114 L248.812,82.68 L271.708,114 L281.572,114 Z M313.332,114.936 C322.044,114.936 328.884,111.336 333.78,105.864 L333.78,87.432 L310.884,87.432 L310.884,96.36 L323.556,96.36 L323.556,102.12 C321.612,103.92 317.58,105.792 313.332,105.792 C304.62,105.792 298.284,99.096 298.284,90.024 C298.284,80.952 304.62,74.256 313.332,74.256 C318.444,74.256 322.548,77.136 324.708,80.52 L333.204,75.912 C329.604,70.224 323.34,65.184 313.332,65.184 C299.292,65.184 287.772,74.832 287.772,90.024 C287.772,105.144 299.292,114.936 313.332,114.936 Z M361.796,114 L361.796,74.976 L375.764,74.976 L375.764,65.976 L337.46,65.976 L337.46,74.976 L351.5,74.976 L351.5,114 L361.796,114 Z M402.84,114.864 C417.384,114.864 427.968,104.496 427.968,90.024 C427.968,75.552 417.384,65.184 402.84,65.184 C388.368,65.184 377.784,75.552 377.784,90.024 C377.784,104.496 388.368,114.864 402.84,114.864 Z M403.84,105.792 C394.984,105.792 389.296,98.952 389.296,90.024 C389.296,81.024 394.984,74.256 403.84,74.256 C412.696,74.256 418.456,81.024 418.456,90.024 C418.456,98.952 412.696,105.792 403.84,105.792 Z M476.152,114 L476.152,65.976 L465.928,65.976 L465.928,96.144 L443.68,65.976 L433.168,65.976 L433.168,114 L443.392,114 L443.392,82.68 L466.288,114 L476.152,114 Z" id="T-—" fill="#000000" sketch:type="MSShapeGroup"></path>
        <rect id="Rectangle-1" fill="#000000" sketch:type="MSShapeGroup" x="69" y="28" width="60" height="9"></rect>
    </g>
</svg>