<?xml version="1.0" encoding="UTF-8" standalone="no"?>
<svg width="129px" height="114px" viewBox="0 0 129 114" version="1.1" xmlns="http://www.w3.org/2000/svg" xmlns:xlink="http://www.w3.org/1999/xlink" xmlns:sketch="http://www.bohemiancoding.com/sketch/ns">
    <title>tb logo</title>
    <description>Created with Sketch (http://www.bohemiancoding.com/sketch)</description>
    <defs></defs>
    <g id="final" stroke="none" stroke-width="1" fill="none" fill-rule="evenodd" sketch:type="MSPage">
        <path d="M25.136,49 L25.136,9.976 L39.104,9.976 L39.104,0.976 L0.8,0.976 L0.8,9.976 L14.84,9.976 L14.84,49 L25.136,49 Z M59.948,114 C69.092,114 73.916,108.24 73.916,101.04 C73.916,94.992 69.812,90.024 64.7,89.232 C69.236,88.296 72.98,84.264 72.98,78.216 C72.98,71.808 68.3,65.976 59.156,65.976 L33.884,65.976 L33.884,114 L59.948,114 Z M56.924,85.2 L44.108,85.2 L44.108,74.76 L56.924,74.76 C60.38,74.76 62.54,76.992 62.54,80.016 C62.54,83.04 60.38,85.2 56.924,85.2 Z M57.284,105.144 L44.108,105.144 L44.108,93.984 L57.284,93.984 C61.316,93.984 63.476,96.576 63.476,99.6 C63.476,103.056 61.172,105.144 57.284,105.144 Z" id="T-—" fill="#000000" sketch:type="MSShapeGroup"></path>
        <rect id="Rectangle-1" fill="#000000" sketch:type="MSShapeGroup" x="69" y="28" width="60" height="9"></rect>
    </g>
</svg>